<svg id="Light" enable-background="new 0 0 24 24" height="512" viewBox="0 0 24 24" width="512" xmlns="http://www.w3.org/2000/svg"><path d="m14 7h-3.5c-.276 0-.5.224-.5.5v6.5h-2.5c-.276 0-.5.224-.5.5s.224.5.5.5h2.5v1.5c0 .276.224.5.5.5s.5-.224.5-.5v-1.5h2.5c.276 0 .5-.224.5-.5s-.224-.5-.5-.5h-2.5v-1h3c1.654 0 3-1.346 3-3s-1.346-3-3-3zm0 5h-3v-4h3c1.103 0 2 .897 2 2s-.897 2-2 2z"/><path d="m12 1c-6.065 0-11 4.935-11 11s4.935 11 11 11 11-4.935 11-11-4.935-11-11-11zm0 21c-5.514 0-10-4.486-10-10s4.486-10 10-10 10 4.486 10 10-4.486 10-10 10z"/></svg>